<svg width="593" height="110" viewBox="0 0 593 110" fill="none" xmlns="http://www.w3.org/2000/svg">
<path fill-rule="evenodd" clip-rule="evenodd" d="M162.92 31.6756H135.054V40.5705H152.255C150.781 45.5615 144.736 49.4654 138.838 49.4654C130.631 49.4654 123.898 42.3494 123.898 34.3935C123.898 26.3881 130.631 19.371 138.838 19.371C143.802 19.371 148.275 22.4842 151.125 26.4869L159.726 21.3971C155.204 14.5777 147.439 10.1302 138.888 10.1302C125.225 10.1302 114.069 21.0512 114.069 34.3441C114.069 47.6864 125.225 58.5579 138.888 58.5579C151.322 58.5579 161.937 50.0583 162.969 38.0997C163.019 37.1608 163.117 36.2219 163.117 35.4312C163.068 34.4429 162.969 32.9604 162.92 31.6756ZM271.091 31.132L302.889 59.1509V11.0691H292.912V38.0008L261.164 9.53723V57.7178H271.042V31.132H271.091ZM372.235 45.6603L362.995 42.0035C360.243 46.1051 355.476 49.4159 350.414 49.4159C342.206 49.4159 335.621 42.3 335.621 34.3441C335.621 26.3387 342.255 19.3216 350.414 19.3216C355.525 19.3216 360.243 22.5831 362.995 26.5857L372.235 22.929C367.811 15.3189 359.653 10.1302 350.364 10.1302C336.702 10.1302 325.546 21.0017 325.546 34.2946C325.546 47.637 336.702 58.5085 350.364 58.5085C359.653 58.5579 367.811 53.4186 372.235 45.6603ZM395.628 58.5085C408.111 58.5085 416.171 50.7008 416.171 38.7915V11.0691H406.195V38.7915C406.195 47.5875 399.511 49.8607 395.628 49.8607C391.598 49.8607 384.914 47.637 384.914 38.7915V11.0691H374.938V38.7915C374.938 50.7008 383.096 58.5085 395.628 58.5085ZM432.341 57.6684V43.1401H439.123C442.907 48.23 446.347 52.9245 450.132 57.7178H462.025C458.29 52.7268 454.063 47.0934 450.132 42.053C455.882 39.5822 459.518 33.9981 459.518 27.2282C459.518 17.6415 452.785 11.0197 442.907 11.0197H422.413V57.7178L432.341 57.6684ZM432.341 34.3441V19.7169H442.907C448.755 19.7169 449.64 24.7574 449.64 27.1787C449.64 32.0215 446.003 34.3441 442.907 34.3441H432.341ZM467.48 43.5848L462.172 51.2937C466.448 54.9999 473.034 58.5579 482.961 58.5579C493.872 58.5579 501.293 53.7645 501.293 44.079C501.293 31.5768 489.399 30.5884 481.88 29.0071C477.703 28.1176 472.739 27.327 472.739 24.0161C472.739 20.3099 477.801 19.4204 480.701 19.4204C485.173 19.4204 489.793 21.3477 493.724 24.2138L499.278 16.5543C494.216 12.7987 489.154 10.2785 481.094 10.2785C472.985 10.2785 462.811 13.2928 462.811 24.4114C462.811 35.5795 475.294 37.7538 481.094 38.6927C486.451 39.6316 491.365 40.6199 491.365 44.3261C491.365 46.9451 488.318 49.5148 482.863 49.5148C477.555 49.5148 470.822 46.3521 467.48 43.5848ZM527.095 58.5579C540.807 58.5579 551.963 47.6864 551.963 34.2946C551.963 21.0017 540.807 10.0808 527.095 10.0808C513.432 10.0808 502.325 21.0017 502.325 34.2946C502.325 47.7358 513.432 58.5579 527.095 58.5579ZM527.095 19.2722C535.351 19.2722 541.986 26.2893 541.986 34.2946C541.986 42.3494 535.351 49.4159 527.095 49.4159C518.887 49.4159 512.203 42.3 512.203 34.2946C512.203 26.3387 518.887 19.2722 527.095 19.2722ZM559.187 43.5848L553.88 51.2937C558.155 54.9999 564.741 58.5579 574.668 58.5579C585.579 58.5579 593 53.7645 593 44.079C593 31.5768 581.107 30.5884 573.587 29.0071C569.41 28.1176 564.446 27.327 564.446 24.0161C564.446 20.3099 569.508 19.4204 572.408 19.4204C576.88 19.4204 581.5 21.3477 585.431 24.2138L590.985 16.5543C585.923 12.7987 580.861 10.2785 572.801 10.2785C564.692 10.2785 554.518 13.2928 554.518 24.4114C554.518 35.5795 567.002 37.7538 572.801 38.6927C578.158 39.6316 583.072 40.6199 583.072 44.3261C583.072 46.9451 580.025 49.5148 574.57 49.5148C569.262 49.5148 562.529 46.3521 559.187 43.5848Z" fill="#161642"/>
<path fill-rule="evenodd" clip-rule="evenodd" d="M178.352 57.6685V43.1402H185.134C188.919 48.2301 192.359 52.9246 196.143 57.7179H208.037C204.301 52.7269 200.075 47.0935 196.143 42.0531C201.893 39.5823 205.53 33.9982 205.53 27.2283C205.53 17.6416 198.797 11.0198 188.919 11.0198H168.425V57.7179L178.352 57.6685ZM178.352 34.3442V19.717H188.919C194.767 19.717 195.652 24.7575 195.652 27.1788C195.652 32.0216 192.015 34.3442 188.919 34.3442H178.352ZM208.97 57.6685H219.93L223.468 50.5032H244.945L248.582 57.6685H259.493L234.232 9.48792L208.97 57.6685ZM228.383 41.9048L234.232 29.6991L240.129 41.9048H228.383Z" fill="#161642"/>
<path fill-rule="evenodd" clip-rule="evenodd" d="M109.4 55C109.4 85.3908 84.9249 110 54.6999 110C24.4749 110 0 85.3908 0 55C0 24.6092 24.4749 0 54.6999 0C84.9249 0 109.4 24.6092 109.4 55Z" fill="#CD1F26"/>
<path fill-rule="evenodd" clip-rule="evenodd" d="M54.3067 66.6622L54.5033 48.5265L100.553 48.9713C100.603 49.5643 100.701 50.1573 100.799 50.9973C100.996 52.2327 100.947 52.6775 101.045 54.0611C102.077 67.2058 96.8675 80.4987 88.9058 88.6523C80.9441 96.806 69.7878 100.809 55.4862 100.66C48.4583 100.611 42.2167 99.4744 36.7615 97.3001C31.3062 95.1258 26.4407 91.8644 22.165 87.4663C18.0859 83.266 14.9405 78.3244 12.7289 72.6415C10.5173 66.9587 9.4361 61.0288 9.48525 54.8024C9.53439 48.4277 10.7139 42.4978 12.9746 37.062C15.2354 31.6757 18.5773 26.8329 23.0005 22.5337C27.3745 18.3334 32.4366 15.2202 38.0884 13.0953C43.7403 10.9704 49.8344 9.93264 56.3709 10.0315C64.8732 10.1303 72.6875 11.3163 78.8799 15.2696C94.017 24.8563 98.1944 38.7916 98.4402 39.8787L74.6533 40.027C72.2452 36.6667 69.493 34.1465 66.4459 32.4663C63.3988 30.7862 59.9586 29.9461 56.1743 29.8967C49.0972 29.8473 43.4945 32.1204 39.3662 36.8149C35.2379 41.5095 33.1246 47.9335 33.0755 56.0872C32.9772 64.3397 34.9922 70.8626 39.0222 75.6065C43.0522 80.3999 48.6058 82.8212 55.6828 82.8707C61.6787 82.9201 66.6916 81.487 70.7216 78.5715C74.7516 75.6559 77.1598 71.8015 77.8478 66.9093L54.3067 66.6622Z" fill="white"/>
<path fill-rule="evenodd" clip-rule="evenodd" d="M135.791 63.6478C129.796 63.6478 124.635 65.7727 120.359 70.0225C116.133 74.2722 113.97 79.4115 113.97 85.3414C113.97 91.3208 116.084 96.4106 120.359 100.611C124.586 104.762 129.746 106.887 135.791 106.887C141.787 106.887 146.948 104.811 151.223 100.611C155.499 96.4106 157.612 91.3208 157.612 85.3414C157.612 79.4115 155.45 74.2722 151.223 70.0225C146.948 65.7727 141.787 63.6478 135.791 63.6478ZM135.791 72.2956C139.379 72.2956 142.475 73.5804 145.031 76.1006C147.636 78.6703 148.914 81.7341 148.914 85.292C148.914 88.8994 147.636 91.9632 145.031 94.4834C142.426 97.0036 139.379 98.239 135.791 98.239C132.155 98.239 129.058 96.9542 126.552 94.4834C123.996 91.9632 122.719 88.8994 122.719 85.292C122.719 81.7341 123.996 78.6703 126.552 76.1006C129.058 73.5804 132.155 72.2956 135.791 72.2956ZM159.824 63.0548V106.689H168.425V82.9695L194.325 107.48V63.7961H185.675V87.5157L159.824 63.0548ZM198.207 63.9937V106.689H224.107V98.1896H206.857V64.0431L198.207 63.9937ZM226.368 106.64H234.969V63.9443H226.368V106.64ZM238.851 63.0548V106.689H247.452V82.9695L273.352 107.48V63.7961H264.702V87.5157L238.851 63.0548ZM277.235 63.8455V106.689H303.135V98.1896H285.884V89.5418H298.81V80.9928H285.884V72.3944H303.135V63.8455H277.235Z" fill="#CD1F26"/>
</svg>
